<?xml version="1.0" encoding="UTF-8" standalone="no"?>
<!-- Created with Inkscape (http://www.inkscape.org/) -->

<svg
   width="80mm"
   height="80mm"
   viewBox="0 0 80 80"
   version="1.1"
   id="svg5"
   inkscape:version="1.1 (c68e22c387, 2021-05-23)"
   sodipodi:docname="grey-pokeball.svg"
   xmlns:inkscape="http://www.inkscape.org/namespaces/inkscape"
   xmlns:sodipodi="http://sodipodi.sourceforge.net/DTD/sodipodi-0.dtd"
   xmlns="http://www.w3.org/2000/svg"
   xmlns:svg="http://www.w3.org/2000/svg">
  <sodipodi:namedview
     id="namedview7"
     pagecolor="#ffffff"
     bordercolor="#666666"
     borderopacity="1.0"
     inkscape:pageshadow="2"
     inkscape:pageopacity="0.0"
     inkscape:pagecheckerboard="0"
     inkscape:document-units="mm"
     showgrid="false"
     inkscape:snap-bbox="true"
     inkscape:snap-global="false"
     inkscape:zoom="0.58781078"
     inkscape:cx="429.56"
     inkscape:cy="156.51295"
     inkscape:window-width="1278"
     inkscape:window-height="1008"
     inkscape:window-x="0"
     inkscape:window-y="0"
     inkscape:window-maximized="0"
     inkscape:current-layer="layer1"
     fit-margin-top="0"
     fit-margin-left="0"
     fit-margin-right="0"
     fit-margin-bottom="0" />
  <defs
     id="defs2" />
  <g
     inkscape:label="Layer 1"
     inkscape:groupmode="layer"
     id="layer1"
     style="display:inline"
     transform="translate(-63.00386,-88.02504)">
    <path
       id="path417"
       style="stroke-width:0.264583"
       inkscape:transform-center-x="-27.129808"
       inkscape:transform-center-y="26.772837"
       d="m 143.00386,128.02504 a 40,40 0 0 1 -40,40 40,40 0 0 1 -40,-40 40,40 0 0 1 40,-40 40,40 0 0 1 40,40 z" />
    <path
       id="path573"
       style="fill:#ffffff;stroke-width:0.236733"
       d="m 137.00386,128.02504 a 34,34 0 0 1 -34,34 34,34 0 0 1 -34,-34 34,34 0 0 1 34,-34 34,34 0 0 1 34,34 z" />
    <path
       id="path573-2"
       style="fill:#808080;stroke-width:0.236733"
       transform="scale(1,-1)"
       d="m 137.37341,-127.55639 a 34.356972,34.095779 0 0 1 -17.17849,29.527813 34.356972,34.095779 0 0 1 -34.356973,-10e-7 34.356972,34.095779 0 0 1 -17.178485,-29.527812 h 34.356968 z" />
    <path
       id="path757"
       style="stroke-width:0.171979"
       inkscape:transform-center-x="4.640625"
       inkscape:transform-center-y="-2.475"
       d="m 116.00386,128.02504 a 13,13 0 0 1 -13,13 13,13 0 0 1 -13,-13 13,13 0 0 1 13,-13 13,13 0 0 1 13,13 z" />
    <path
       id="path885"
       style="fill:#ffffff;stroke-width:0.185208"
       d="m 110.00386,128.02504 a 7,7 0 0 1 -7,7 7,7 0 0 1 -7,-7 7,7 0 0 1 7,-7 7,7 0 0 1 7,7 z" />
    <path
       id="rect1011"
       style="stroke-width:0.264583"
       d="m 114.78391,125.00967 h 24.27404 v 6.42548 h -24.27404 z" />
    <path
       id="rect1011-5"
       style="stroke-width:0.264583"
       d="m 67.663719,125.16928 h 24.274038 v 6.42548 H 67.663719 Z" />
  </g>
</svg>
